<svg width="192" height="80" viewBox="0 0 48 20" fill="none" xmlns="http://www.w3.org/2000/svg">
<g filter="url(#filter0_d_316_18)">
<rect x="35" y="11.9854" width="10" height="3" transform="rotate(-90 35 11.9854)" fill="#747474"/>
<path d="M4.65041 12.9854C4.2912 12.9854 4 12.6942 4 12.3349L4 1.6504C4 1.2912 4.2912 1 4.6504 1L34.8496 0.999999C35.2088 0.999999 35.5 1.2912 35.5 1.6504L35.5 12.3349C35.5 12.6942 35.2088 12.9854 34.8496 12.9854L4.65041 12.9854Z" fill="white"/>
<path d="M35.5 11.9854L35.5 1.98535L36.1748 1.98535C36.3544 1.98535 36.5 2.13095 36.5 2.31055L36.5 11.6601C36.5 11.8398 36.3544 11.9854 36.1748 11.9854L35.5 11.9854Z" fill="#ABABAB"/>
<path d="M37.7124 12.9854C37.3299 12.9854 37.0293 12.6582 37.0603 12.2769C37.1564 11.0982 37.3333 8.69482 37.3333 6.98535C37.3333 5.27731 37.1567 2.88433 37.0606 1.70871C37.0294 1.32734 37.3301 1 37.7127 1L41.6667 1L43.4328 1.22794C43.7572 1.2698 44 1.54597 44 1.873L44 12.1013C44 12.4267 43.7594 12.7021 43.4368 12.7458L41.6667 12.9854L37.7124 12.9854Z" fill="#222222"/>
<path fill-rule="evenodd" clip-rule="evenodd" d="M41.8329 0.999975L43.4392 1.22309C43.7608 1.26775 44.0002 1.54268 44.0002 1.86731L44.0002 12.1175C44.0002 12.4421 43.7608 12.7171 43.4392 12.7617L41.7237 13L41.7236 13L41.7236 0.999975L41.8329 0.999975Z" fill="white"/>
<path fill-rule="evenodd" clip-rule="evenodd" d="M44.0002 2.5172L44.0002 11.4525L41.7236 11.9849L41.7236 1.98486L44.0002 2.5172Z" fill="#121212"/>
</g>
<defs>
<filter id="filter0_d_316_18" x="0" y="0" width="48" height="20" filterUnits="userSpaceOnUse" color-interpolation-filters="sRGB">
<feFlood flood-opacity="0" result="BackgroundImageFix"/>
<feColorMatrix in="SourceAlpha" type="matrix" values="0 0 0 0 0 0 0 0 0 0 0 0 0 0 0 0 0 0 127 0" result="hardAlpha"/>
<feOffset dy="3"/>
<feGaussianBlur stdDeviation="2"/>
<feComposite in2="hardAlpha" operator="out"/>
<feColorMatrix type="matrix" values="0 0 0 0 0 0 0 0 0 0 0 0 0 0 0 0 0 0 0.32 0"/>
<feBlend mode="normal" in2="BackgroundImageFix" result="effect1_dropShadow_316_18"/>
<feBlend mode="normal" in="SourceGraphic" in2="effect1_dropShadow_316_18" result="shape"/>
</filter>
</defs>
</svg>
