<svg width="152" height="40" viewBox="0 0 152 40" fill="none" xmlns="http://www.w3.org/2000/svg">
<g clip-path="url(#clip0)">
<path d="M78.084 8.29602H75.18C75.1283 8.29598 75.0786 8.31595 75.0413 8.35174C75.004 8.38754 74.982 8.43638 74.98 8.48802V11.744C74.982 11.7957 75.004 11.8445 75.0413 11.8803C75.0786 11.9161 75.1283 11.9361 75.18 11.936H78.084C78.1349 11.936 78.1837 11.9158 78.2197 11.8798C78.2558 11.8438 78.276 11.7949 78.276 11.744V8.48802C78.276 8.4371 78.2558 8.38826 78.2197 8.35226C78.1837 8.31625 78.1349 8.29602 78.084 8.29602Z" fill="white"/>
<path d="M78.084 14.224H75.18C75.1283 14.224 75.0786 14.2439 75.0413 14.2797C75.004 14.3155 74.982 14.3644 74.98 14.416V31.072C74.98 31.125 75.0011 31.1759 75.0386 31.2134C75.0761 31.2509 75.1269 31.272 75.18 31.272H78.084C78.1356 31.2699 78.1845 31.248 78.2203 31.2107C78.2561 31.1734 78.276 31.1237 78.276 31.072V14.4C78.276 14.3491 78.2558 14.3002 78.2197 14.2642C78.1837 14.2282 78.1349 14.208 78.084 14.208" fill="white"/>
<path d="M90.116 13.904C89.194 13.846 88.2713 14.0054 87.4222 14.3695C86.5732 14.7336 85.8216 15.2921 85.228 16C85.2105 16.0124 85.1895 16.019 85.168 16.019C85.1465 16.019 85.1256 16.0124 85.108 16L84.812 15.856C84.7962 15.8469 84.7829 15.8342 84.7731 15.8189C84.7634 15.8036 84.7575 15.7861 84.756 15.768V14.4C84.756 14.349 84.7358 14.3002 84.6998 14.2642C84.6638 14.2282 84.6149 14.208 84.564 14.208H81.66C81.6155 14.217 81.5754 14.241 81.5463 14.2759C81.5172 14.3108 81.5009 14.3545 81.5 14.4V31.072C81.5 31.125 81.5211 31.1759 81.5586 31.2134C81.5961 31.2509 81.647 31.272 81.7 31.272H84.604C84.6556 31.2699 84.7045 31.2479 84.7403 31.2106C84.7761 31.1733 84.796 31.1237 84.796 31.072V22.112C84.796 18.688 86.164 16.664 89.044 16.664C92.18 16.664 92.564 18.976 92.564 21.416V31.072C92.564 31.1237 92.5839 31.1733 92.6197 31.2106C92.6555 31.2479 92.7044 31.2699 92.756 31.272H95.66C95.713 31.272 95.7639 31.2509 95.8014 31.2134C95.8389 31.1759 95.86 31.125 95.86 31.072V20.528C95.86 16.568 94.26 13.904 90.156 13.904" fill="white"/>
<path d="M113.012 8.29602H110.108C110.057 8.29602 110.008 8.31625 109.972 8.35226C109.936 8.38826 109.916 8.4371 109.916 8.48802V11.744C109.916 11.7949 109.936 11.8438 109.972 11.8798C110.008 11.9158 110.057 11.936 110.108 11.936H113.012C113.064 11.9361 113.113 11.9161 113.151 11.8803C113.188 11.8445 113.21 11.7957 113.212 11.744V8.48802C113.21 8.43638 113.188 8.38754 113.151 8.35174C113.113 8.31595 113.064 8.29598 113.012 8.29602Z" fill="white"/>
<path d="M113.012 14.224H110.108C110.057 14.224 110.008 14.2442 109.972 14.2802C109.936 14.3162 109.916 14.3651 109.916 14.416V31.072C109.916 31.1237 109.936 31.1734 109.972 31.2107C110.008 31.248 110.056 31.2699 110.108 31.272H113.012C113.065 31.272 113.116 31.2509 113.153 31.2134C113.191 31.1759 113.212 31.125 113.212 31.072V14.4C113.21 14.3484 113.188 14.2995 113.151 14.2637C113.113 14.2279 113.064 14.208 113.012 14.208" fill="white"/>
<path d="M131.58 8.29602H128.7C128.649 8.29602 128.6 8.31625 128.564 8.35226C128.528 8.38826 128.508 8.4371 128.508 8.48802V15.84C128.508 15.8606 128.502 15.8806 128.49 15.8977C128.479 15.9148 128.463 15.9281 128.444 15.936L128.124 16.04C128.107 16.0498 128.088 16.055 128.068 16.055C128.048 16.055 128.029 16.0498 128.012 16.04C127.433 15.3367 126.697 14.7792 125.863 14.4123C125.03 14.0455 124.121 13.8796 123.212 13.928C119.252 13.928 115.86 17.224 115.86 22.8C115.86 28.376 119.252 31.704 123.212 31.704C124.138 31.757 125.064 31.5887 125.913 31.2131C126.761 30.8375 127.508 30.2654 128.092 29.544C128.108 29.5288 128.13 29.5204 128.152 29.5204C128.174 29.5204 128.196 29.5288 128.212 29.544L128.484 29.672C128.5 29.681 128.513 29.6938 128.523 29.7091C128.532 29.7244 128.538 29.7419 128.54 29.76V31.12C128.54 31.1717 128.56 31.2214 128.596 31.2587C128.631 31.296 128.68 31.318 128.732 31.32H131.636C131.689 31.32 131.74 31.299 131.777 31.2614C131.815 31.2239 131.836 31.1731 131.836 31.12V8.48802C131.834 8.43638 131.812 8.38754 131.775 8.35174C131.737 8.31595 131.688 8.29598 131.636 8.29602H131.58ZM123.9 28.928C121.148 28.928 119.308 26.616 119.308 22.776C119.308 18.936 121.148 16.664 123.9 16.664C126.436 16.664 128.596 18.56 128.596 22.776C128.596 26.992 126.436 28.928 123.9 28.928Z" fill="white"/>
<path d="M142.572 13.904C137.724 13.904 134.172 17.424 134.172 22.704C134.172 27.648 137.18 31.672 142.66 31.672C146.844 31.672 149.412 29.232 150.26 26.504C150.269 26.4746 150.271 26.4435 150.266 26.4133C150.26 26.383 150.247 26.3546 150.229 26.3303C150.21 26.306 150.185 26.2865 150.158 26.2736C150.13 26.2607 150.099 26.2547 150.068 26.256H147.1C147.063 26.2547 147.026 26.2646 146.995 26.2846C146.964 26.3046 146.939 26.3337 146.924 26.368C146.18 27.92 144.86 28.856 142.508 28.856C139.876 28.856 137.972 27.008 137.556 23.976C137.553 23.9478 137.556 23.9192 137.564 23.8921C137.573 23.865 137.587 23.84 137.606 23.8188C137.625 23.7976 137.648 23.7807 137.674 23.7692C137.7 23.7576 137.728 23.7518 137.756 23.752H150.332C150.358 23.7531 150.383 23.7492 150.406 23.7405C150.43 23.7318 150.452 23.7186 150.471 23.7015C150.489 23.6844 150.504 23.6638 150.515 23.6409C150.525 23.618 150.531 23.5932 150.532 23.568C150.804 18.112 147.74 13.896 142.532 13.896L142.572 13.904ZM146.884 21.152H137.852C137.825 21.1511 137.797 21.1444 137.772 21.1324C137.747 21.1204 137.725 21.1033 137.707 21.0823C137.689 21.0612 137.676 21.0366 137.667 21.01C137.659 20.9835 137.657 20.9555 137.66 20.928C138.188 17.832 140.06 16.592 142.54 16.592C143.718 16.5849 144.852 17.0358 145.703 17.8494C146.553 18.663 147.055 19.7756 147.1 20.952C147.101 20.9789 147.097 21.0058 147.088 21.031C147.078 21.0562 147.063 21.0792 147.045 21.0986C147.026 21.118 147.004 21.1335 146.979 21.144C146.954 21.1546 146.927 21.16 146.9 21.16" fill="white"/>
<path d="M107.284 14.224H100.588C100.382 14.2248 100.184 14.3051 100.036 14.448L98.8121 15.672C98.6643 15.821 98.581 16.0221 98.5801 16.232V31.072C98.5801 31.125 98.6012 31.1759 98.6387 31.2134C98.6762 31.2509 98.727 31.272 98.7801 31.272H101.684C101.737 31.272 101.788 31.2509 101.826 31.2134C101.863 31.1759 101.884 31.125 101.884 31.072V17.472C101.884 17.4211 101.904 17.3722 101.94 17.3362C101.976 17.3002 102.025 17.28 102.076 17.28H107.284C107.336 17.2779 107.385 17.256 107.42 17.2187C107.456 17.1814 107.476 17.1317 107.476 17.08V14.4C107.476 14.3491 107.456 14.3002 107.42 14.2642C107.384 14.2282 107.335 14.208 107.284 14.208" fill="white"/>
<path d="M64.5641 13.7839C59.6761 13.7839 56.1001 17.3279 56.1001 22.6639C56.1001 27.6479 59.1321 31.7039 64.6601 31.7039C68.8761 31.7039 71.4681 29.2399 72.3161 26.4959C72.3246 26.4668 72.3264 26.436 72.3213 26.4061C72.3162 26.3761 72.3043 26.3477 72.2865 26.3231C72.2688 26.2984 72.2457 26.2781 72.2189 26.2637C72.1922 26.2493 72.1625 26.2411 72.1321 26.2399H69.1561C69.1197 26.2422 69.0845 26.2537 69.0537 26.2733C69.0229 26.2929 68.9976 26.3199 68.9801 26.3519C68.2361 27.9519 66.9001 28.8639 64.5321 28.8639C61.8761 28.8639 59.9561 26.9999 59.5401 23.9359C59.5379 23.9084 59.5414 23.8806 59.5505 23.8545C59.5595 23.8283 59.5739 23.8044 59.5927 23.7841C59.6115 23.7638 59.6343 23.7476 59.6597 23.7365C59.685 23.7255 59.7124 23.7198 59.7401 23.7199H72.4281C72.4792 23.7181 72.5279 23.6975 72.5648 23.6621C72.6016 23.6267 72.6242 23.5789 72.6281 23.5279C72.9001 18.0319 69.8041 13.7839 64.5641 13.7839ZM68.9561 21.0959H59.8121C59.7837 21.0961 59.7556 21.0903 59.7296 21.0788C59.7036 21.0673 59.6804 21.0503 59.6615 21.0291C59.6425 21.008 59.6283 20.983 59.6198 20.9559C59.6113 20.9288 59.6087 20.9001 59.6121 20.8719C60.1481 17.7439 62.0121 16.4959 64.5321 16.4959C65.7228 16.4825 66.8718 16.9337 67.7352 17.7538C68.5986 18.5738 69.1083 19.6981 69.1561 20.8879C69.1572 20.9149 69.1528 20.9417 69.1432 20.9669C69.1337 20.9921 69.1191 21.0151 69.1004 21.0346C69.0817 21.054 69.0593 21.0694 69.0345 21.08C69.0097 21.0905 68.983 21.096 68.9561 21.0959Z" fill="white"/>
<path d="M39.8999 0H-0.100098V40H39.8999V0Z" fill="white"/>
<path d="M26.38 23.8081L17.876 13.8881C17.8351 13.8417 17.8123 13.782 17.812 13.7201V8.0481H13.124V15.0881C13.1283 15.3808 13.2328 15.6631 13.42 15.8881L21.924 25.8081C21.9644 25.8517 21.9872 25.9087 21.988 25.9681V31.9361H26.676V24.6241C26.6782 24.3254 26.5731 24.0359 26.38 23.8081Z" fill="#121212"/>
</g>
<defs>
<clipPath id="clip0">
<rect width="152" height="40" fill="white"/>
</clipPath>
</defs>
</svg>
